<svg xmlns="http://www.w3.org/2000/svg" xmlns:xlink="http://www.w3.org/1999/xlink" width="496" height="344" viewBox="0 0 496 344">
    <defs>
        <path id="a" d="M0 0h496v344H0z"/>
        <linearGradient id="c" x1="-34.021%" y1="0%" y2="65.757%">
            <stop offset="0%" stop-color="#6BD0F4"/>
            <stop offset="100%" stop-color="#83F1C0"/>
        </linearGradient>
        <path id="d" d="M.065.58h93.879V288H.064z"/>
        <linearGradient id="f" x1="75.642%" x2="9.335%" y1="79.826%" y2="10.177%">
            <stop offset="0%" stop-color="#6BD0F4"/>
            <stop offset="100%" stop-color="#83F1C0" stop-opacity="0"/>
        </linearGradient>
        <linearGradient id="g" x1="-7.295%" y1="0%" y2="107.044%">
            <stop offset="0%" stop-color="#8478BD"/>
            <stop offset="100%" stop-color="#526AC5"/>
        </linearGradient>
        <linearGradient id="h" x1="40.757%" y1="72.739%" y2="5.994%">
            <stop offset="0%" stop-color="#6BD0F4"/>
            <stop offset="100%" stop-color="#83F1C0" stop-opacity="0"/>
        </linearGradient>
    </defs>
    <g fill="none" fill-rule="evenodd">
        <mask id="b" fill="#fff">
            <use xlink:href="#a"/>
        </mask>
        <g mask="url(#b)">
            <path fill="url(#c)" d="M121.41 8.927c2.352-5.26 7.632-8.926 13.767-8.926 8.325 0 15.074 6.749 15.074 15.074 0 6.102-3.626 11.358-8.841 13.729V337.22h-39.378V21.171c0-6.763 3.323-12.244 7.423-12.244h11.955z" opacity=".5" transform="translate(1 1)"/>
            <g transform="translate(167 50.221)">
                <mask id="e" fill="#fff">
                    <use xlink:href="#d"/>
                </mask>
                <path fill="#DAEDE9" d="M.065 12.03v264.52c0 6.323 5.127 11.45 11.45 11.45h70.978c6.324 0 11.45-5.127 11.45-11.45V12.03c0-6.324-5.126-11.45-11.45-11.45H11.516C5.192.58.065 5.706.065 12.03" mask="url(#e)"/>
            </g>
            <path fill="url(#c)" d="M447.695 196.756H403.38v130.361h58.735v-115.94c0-7.964-6.456-14.42-14.421-14.42" opacity=".5" transform="translate(1 1)"/>
            <path fill="url(#c)" d="M67.017 41.979h36.593c6.114 0 11.071 4.957 11.071 11.072V337.22H55.946V53.05c0-6.114 4.957-11.071 11.071-11.071" opacity=".7" transform="translate(1 1)"/>
            <path fill="url(#c)" d="M430.14 93.343H86.191c-8.783 0-15.903 7.12-15.903 15.902V336.22h375.752V109.245c0-8.782-7.12-15.902-15.902-15.902" transform="translate(1 1)"/>
            <path fill="url(#c)" d="M70.29 186.63v70.82c1.758.265 3.56.405 5.392.405 19.78 0 35.814-16.036 35.814-35.816 0-19.779-16.034-35.814-35.813-35.814-1.834 0-3.635.138-5.394.404" opacity=".5" style="mix-blend-mode:multiply" transform="translate(1 1)"/>
            <path fill="url(#c)" d="M145.61 93.343c-.35-11.064-9.406-19.933-20.556-19.933s-20.207 8.87-20.556 19.933h41.112z" transform="translate(1 1)"/>
            <path fill="url(#c)" d="M453.487 281.972a7.458 7.458 0 1 1-14.916 0 7.458 7.458 0 0 1 14.916 0" opacity=".5" transform="translate(1 1)"/>
            <path fill="url(#f)" d="M8.724 157.5c4.438-3.764 11.087-3.215 14.85 1.224l42.249 49.842-16.074 13.626-42.25-49.843c-3.762-4.439-3.214-11.087 1.225-14.85" opacity=".5" transform="translate(1 1)"/>
            <path fill="url(#f)" d="M4.906 123.277c5.848-4.957 14.607-4.234 19.564 1.613l63.408 74.805-21.177 17.95-63.408-74.804c-4.957-5.847-4.235-14.607 1.613-19.564" opacity=".5" transform="translate(1 1)"/>
            <path fill="url(#f)" d="M25.723 123.499c4.438-3.762 11.087-3.214 14.85 1.225l52.836 62.332-16.075 13.626-52.836-62.332c-3.762-4.44-3.213-11.088 1.225-14.851" opacity=".5" transform="translate(1 1)"/>
            <path fill="url(#f)" d="M36.67 151.37a6.79 6.79 0 0 1 9.568.788L85.19 198.11a2.833 2.833 0 0 1-.33 3.992l-6.035 5.117a2.834 2.834 0 0 1-3.993-.33l-38.95-45.952a6.789 6.789 0 0 1 .788-9.568M13.861 184.25a5.269 5.269 0 0 1 7.425.61l31.646 37.336-8.037 6.813-31.646-37.334a5.269 5.269 0 0 1 .612-7.425" opacity=".5" transform="translate(1 1)"/>
            <path fill="#626CA0" d="M82.761 338.221h317.404v-25.272H82.761z"/>
            <path fill="url(#c)" d="M96.212 284.902a7.357 7.357 0 1 1-14.714 0 7.357 7.357 0 0 1 14.714 0" opacity=".5" style="mix-blend-mode:multiply" transform="translate(1 1)"/>
            <path fill="url(#g)" d="M96.212 274.27a7.357 7.357 0 1 1-14.714-.001 7.357 7.357 0 0 1 14.714.002" transform="translate(1 1)"/>
            <path fill="url(#c)" d="M120.859 245.167a4.682 4.682 0 1 1-9.363 0 4.682 4.682 0 0 1 9.363 0" opacity=".5" style="mix-blend-mode:multiply" transform="translate(1 1)"/>
            <path fill="url(#g)" d="M120.859 236.993a4.682 4.682 0 1 1-9.364 0 4.682 4.682 0 0 1 9.364 0" transform="translate(1 1)"/>
            <path fill="url(#c)" d="M364.98 66.278H148.848c-6.523 0-11.812 5.289-11.812 11.813v204.188c0 6.523 5.289 11.812 11.812 11.812h164.194c.99 4.304 4.836 7.516 9.44 7.516h18.359c4.605 0 8.45-3.212 9.44-7.516h14.699c6.524 0 11.813-5.29 11.813-11.812V78.09c0-6.524-5.29-11.813-11.813-11.813" opacity=".5" style="mix-blend-mode:multiply" transform="translate(1 1)"/>
            <path fill="#626CA0" d="M365.98 280.849H149.848c-6.523 0-11.812-5.288-11.812-11.813V64.848c0-6.523 5.289-11.812 11.812-11.812H365.98c6.524 0 11.813 5.289 11.813 11.812v204.188c0 6.525-5.29 11.813-11.813 11.813"/>
            <path fill="#626CA0" d="M141.28 138.854h3.809a4.115 4.115 0 0 0 4.114-4.114V85.468a4.114 4.114 0 0 0-4.114-4.114h-3.81c-7.211 0-13.058 5.847-13.058 13.059v31.382c0 7.212 5.847 13.059 13.059 13.059M342.125 289.713h-18.36c-5.354 0-9.695-4.34-9.695-9.695v-1.816a3.52 3.52 0 0 1 3.52-3.52h30.71a3.52 3.52 0 0 1 3.52 3.52v1.816c0 5.354-4.341 9.695-9.695 9.695"/>
            <path fill="url(#g)" d="M350.814 275.636c-.167 5.207-4.442 9.378-9.69 9.378h-18.359a9.696 9.696 0 0 1-9.69-9.378H148.848c-6.523 0-11.812-5.288-11.812-11.813V133.281c-5.643-1.443-9.815-6.56-9.815-12.653V89.246c0-6.092 4.172-11.21 9.815-12.653V59.635c0-6.523 5.289-11.812 11.812-11.812H364.98c6.524 0 11.813 5.29 11.813 11.812v204.188c0 6.525-5.29 11.813-11.813 11.813h-14.166z" transform="translate(1 1)"/>
            <path fill="url(#g)" d="M155.628 258.119h202.574V65.489H155.628z" opacity=".3" style="mix-blend-mode:multiply" transform="translate(1 1)"/>
            <path stroke="#7DE8CF" stroke-width="2" d="M156.627 66.489h202.574M156.627 114.609h202.574M156.627 162.73h202.574M156.627 210.85h202.574M156.627 258.971h202.574M359.202 258.971V66.49M308.558 258.971V66.49M257.914 258.971V66.49"/>
            <path stroke="#93D3C9" stroke-width="2" d="M207.271 258.971V66.49"/>
            <path stroke="#7DE8CF" stroke-width="2" d="M156.627 258.971V66.49"/>
            <path stroke="#7DE8CF" stroke-width="3" d="M206.828 258.8s.267-47.46-50.2-47.46c0 0 100.95-1.688 100.95-48.61s50.884-47.534 50.884-47.534 50.74-.227 50.74-48.388M189.778 90.923a7.357 7.357 0 0 1-7.357 7.356 7.357 7.357 0 1 1 7.357-7.356zM326.511 235.207a7.357 7.357 0 0 1 7.357-7.357M341.226 235.207a7.357 7.357 0 0 1-7.357 7.357M227.09 90.923h13.283"/>
            <path fill="url(#g)" d="M303.776 322.515h-45.298c-5.826 0-10.565-4.74-10.565-10.566h-65.861c0 5.826-4.74 10.566-10.565 10.566h-9.88c-5.826 0-10.565-4.74-10.565-10.566h-11.906c-.001 5.826-4.74 10.566-10.567 10.566H92.327c-5.827 0-10.567-4.74-10.567-10.566h-8.89c-13.862 0-25.1 11.237-25.1 25.1v.171h270.712c-.001-8.108-6.598-14.705-14.706-14.705" transform="translate(1 1)"/>
            <path fill="url(#g)" d="M444.914 311.949h-56.856c0 6.84-5.567 12.405-12.406 12.405h-16.317c-6.841 0-12.405-5.565-12.405-12.405H250.72c0 4.277 3.48 7.758 7.757 7.758h45.298c9.657 0 17.513 7.856 17.514 17.513h148.724v-.171c0-13.863-11.238-25.1-25.1-25.1" transform="translate(1 1)"/>
            <path fill="#626CA0" d="M49.518 331.964a25.15 25.15 0 0 0-.747 6.084v.172h270.711c0-2.239-.519-4.355-1.417-6.256H49.518zM321.115 331.964a17.412 17.412 0 0 1 1.176 6.256h148.723v-.172a25.1 25.1 0 0 0-.746-6.084H321.115z"/>
            <path fill="url(#g)" d="M446.029 281.972c-9.028 0-16.348-7.319-16.348-16.348v-29.366c0-9.029 7.32-16.349 16.348-16.349 9.029 0 16.349 7.32 16.349 16.35v29.365c0 9.03-7.32 16.348-16.35 16.348" transform="translate(1 1)"/>
            <path fill="url(#c)" d="M446.128 279.348h-.198c-7.636 0-13.825-6.189-13.825-13.825V236.36c0-7.635 6.19-13.825 13.825-13.825h.198c7.635 0 13.825 6.19 13.825 13.825v29.164c0 7.636-6.19 13.825-13.825 13.825" transform="translate(1 1)"/>
            <path fill="url(#g)" d="M411.413 293.309a6.341 6.341 0 0 1-6.341-6.341v-27.774a6.341 6.341 0 0 1 12.683 0v27.774a6.342 6.342 0 0 1-6.342 6.341" transform="translate(1 1)"/>
            <path fill="url(#c)" d="M411.913 290.832h-1a3.694 3.694 0 0 1-3.693-3.695V259.18a3.695 3.695 0 0 1 3.694-3.695h.999a3.695 3.695 0 0 1 3.694 3.695v27.957a3.694 3.694 0 0 1-3.694 3.695" transform="translate(1 1)"/>
            <path fill="#6E78B4" d="M122.721 175.7a3.334 3.334 0 0 1-3.334-3.333v-19.273a3.334 3.334 0 0 1 6.667 0v19.273a3.333 3.333 0 0 1-3.333 3.333"/>
            <path fill="url(#c)" d="M121.721 172.762a1.617 1.617 0 0 1-1.618-1.617v-18.749a1.617 1.617 0 1 1 3.235 0v18.75c0 .892-.724 1.616-1.617 1.616" transform="translate(1 1)"/>
            <path fill="url(#g)" d="M380.47 307.17h-25.954a4.778 4.778 0 0 0-4.778 4.778c0 5.292 4.304 9.597 9.596 9.597h16.318c5.292 0 9.596-4.305 9.596-9.597a4.778 4.778 0 0 0-4.778-4.778M174.076 306.78h-15.058a5.168 5.168 0 0 0-5.168 5.169c0 4.277 3.48 7.758 7.757 7.758h9.88c4.277 0 7.757-3.481 7.757-7.758a5.168 5.168 0 0 0-5.168-5.168M131.159 306.78H89.738a5.168 5.168 0 0 0-5.17 5.169c0 4.277 3.48 7.758 7.759 7.758h36.242c4.278 0 7.759-3.481 7.759-7.758a5.168 5.168 0 0 0-5.17-5.168" transform="translate(1 1)"/>
            <path fill="url(#c)" d="M405.175 186.454a9.038 9.038 0 1 1-18.076 0 9.038 9.038 0 0 1 18.076 0" opacity=".5" style="mix-blend-mode:multiply" transform="translate(1 1)"/>
            <path fill="url(#g)" d="M406.282 175.02c0 5.603-4.542 10.145-10.145 10.145-5.601 0-10.143-4.542-10.143-10.145 0-5.602 4.542-10.144 10.143-10.144 5.603 0 10.145 4.542 10.145 10.144M467.882 189.333a5.766 5.766 0 1 1-11.532 0 5.766 5.766 0 0 1 11.532 0" transform="translate(1 1)"/>
            <path fill="url(#c)" d="M446.041 112.834c-6.068-7.526-15.36-12.346-25.784-12.346-18.286 0-33.11 14.824-33.11 33.111 0 18.286 14.825 33.11 33.11 33.11 10.423 0 19.716-4.819 25.784-12.347v-41.528z" opacity=".5" style="mix-blend-mode:multiply" transform="translate(1 1)"/>
            <path fill="url(#h)" d="M474.586 82.733c-4.439-3.762-11.088-3.214-14.85 1.225l-42.25 49.843 16.075 13.625 42.25-49.843c3.761-4.44 3.213-11.087-1.225-14.85" opacity=".5" transform="translate(1 1)"/>
            <path fill="url(#h)" d="M489.718 36.02c-5.848-4.956-14.607-4.234-19.564 1.614l-63.408 74.804 21.178 17.95 63.407-74.803c4.957-5.848 4.236-14.607-1.613-19.564" opacity=".5" transform="translate(1 1)"/>
            <path fill="url(#h)" d="M463.474 39.593c-4.438-3.763-11.087-3.215-14.85 1.224l-52.836 62.333 16.075 13.625L464.7 54.443c3.762-4.439 3.214-11.087-1.225-14.85" opacity=".5" transform="translate(1 1)"/>
            <path fill="url(#h)" d="M457.955 64.113a6.79 6.79 0 0 0-9.568.789l-40.784 48.112 10.358 8.78 40.783-48.113a6.789 6.789 0 0 0-.79-9.568M469.318 108.566a5.268 5.268 0 0 0-7.425.612l-31.646 37.334 8.037 6.813 31.646-37.334a5.268 5.268 0 0 0-.612-7.425" opacity=".5" transform="translate(1 1)"/>
            <path fill="url(#g)" d="M454.895 124.292c0 19.13-15.508 34.638-34.638 34.638s-34.637-15.508-34.637-34.638 15.507-34.638 34.637-34.638c19.13 0 34.638 15.508 34.638 34.638" transform="translate(1 1)"/>
            <path fill="url(#c)" d="M419.005 122.16c1.957.067 3.878.127 5.724-.536 1.297-.466 2.016-1.518 2.005-2.752-.01-1.251-.744-2.267-2.015-2.755-1.85-.711-3.767-.576-5.714-.492v6.535zm-.012 10.539c1.373 0 2.697.105 3.994-.032 1.137-.12 2.271-.436 3.36-.805 1.214-.413 1.855-1.362 1.88-2.66.026-1.353-.618-2.313-1.837-2.883-2.37-1.108-4.877-.841-7.397-.817v7.197zm2.51-26.282h3.336v5.404c.417.059.754.113 1.094.15 1.56.177 3.054.572 4.422 1.367 2.931 1.705 3.463 6.426.978 8.724-.34.314-.743.559-1.204.9.357.12.625.202.886.3 1.597.603 2.95 1.526 3.448 3.24.661 2.274.441 4.508-.763 6.576-1.195 2.054-3.23 2.784-5.402 3.204-1.126.219-2.277.31-3.459.465v5.423h-3.337v-5.356h-2.542v5.356h-3.337v-5.55h-6.605l.62-3.738c.091-.041.137-.08.184-.08a185.49 185.49 0 0 1 1.825-.024c1.285-.011 1.64-.362 1.641-1.667.004-4.577.004-9.154 0-13.731 0-1.412-.616-2.035-2.017-2.052-.734-.01-1.467-.001-2.222-.001v-3.525h6.574v-5.385h3.337v5.217h2.542v-5.217z" transform="translate(1 1)"/>
            <path fill="url(#g)" d="M111.497 213.04c0 19.78-16.034 35.815-35.814 35.815-19.781 0-35.816-16.035-35.816-35.815 0-19.78 16.035-35.814 35.816-35.814 19.78 0 35.814 16.035 35.814 35.814" transform="translate(1 1)"/>
            <path fill="url(#c)" d="M77.524 199.35c2.354.114 4.177.57 6.34 1.14l-1.214 5.089c-2.164-.646-4.708-1.102-6.95-1.102-2.505 0-3.834.645-3.834 2.658 0 1.861 1.139 2.317 4.86 3.267 6.342 1.632 8.278 3.721 8.278 8.428 0 4.861-2.354 7.445-7.48 7.825v5.657h-3.19v-5.62c-3.077-.076-5.051-.531-7.937-1.52l1.102-5.089c2.506.798 5.544 1.444 8.088 1.444 2.43 0 3.646-.684 3.646-2.543 0-2.014-1.178-2.507-5.051-3.456-5.772-1.292-7.822-3.647-7.822-8.127 0-5.126 2.392-7.708 7.974-8.051v-5.582h3.19v5.582z" transform="translate(1 1)"/>
            <path fill="url(#g)" d="M426.543 304.8a2.354 2.354 0 0 1-2.353-2.354v-13.125a2.354 2.354 0 0 1 4.707 0v13.125c0 1.3-1.054 2.354-2.354 2.354M100.906 157.676a2.354 2.354 0 0 1-2.353-2.354v-13.125a2.354 2.354 0 0 1 4.707 0v13.125c0 1.3-1.054 2.354-2.354 2.354" transform="translate(1 1)"/>
            <path fill="#6E78B4" d="M121.779 285.232a2.91 2.91 0 0 1-2.911-2.911v-18.495a2.91 2.91 0 1 1 5.822 0v18.495a2.911 2.911 0 0 1-2.911 2.91"/>
            <path fill="url(#c)" d="M120.779 281.627a1.244 1.244 0 0 1-1.244-1.243v-16.62a1.244 1.244 0 0 1 2.488 0v16.62c0 .686-.557 1.243-1.244 1.243" transform="translate(1 1)"/>
            <path fill="url(#g)" d="M104.827 298.02a1.333 1.333 0 0 1-1.333-1.333v-9a1.333 1.333 0 0 1 2.667 0v9c0 .736-.597 1.333-1.334 1.333M110 183.058a1.333 1.333 0 0 1-1.332-1.333v-9a1.333 1.333 0 0 1 2.665 0v9c0 .736-.596 1.333-1.332 1.333M397.637 259.665a1.333 1.333 0 0 1-1.333-1.333v-16.74a1.333 1.333 0 1 1 2.667 0v16.74c0 .736-.597 1.333-1.334 1.333M418.4 324.062a1.333 1.333 0 0 1-1.333-1.333v-16.741a1.333 1.333 0 1 1 2.666 0v16.74c0 .737-.597 1.334-1.333 1.334" transform="translate(1 1)"/>
            <path fill="url(#c)" d="M453.663 177.342a6.77 6.77 0 1 1-13.542-.001 6.77 6.77 0 0 1 13.542.001" opacity=".5" transform="translate(1 1)"/>
            <path fill="#93D3C9" d="M463.116 158.798a3.545 3.545 0 1 1-7.092 0 3.547 3.547 0 0 1 7.092 0M392.455 80.416a3.8 3.8 0 1 1-7.603 0 3.802 3.802 0 1 1 7.603 0"/>
            <path fill="url(#c)" d="M81.76 292.685c0 7.785-6.31 14.096-14.095 14.096-7.784 0-14.094-6.311-14.094-14.096 0-7.784 6.31-14.095 14.094-14.095s14.095 6.311 14.095 14.095" transform="translate(1 1)"/>
            <path fill="url(#c)" d="M63.614 262.519a7.669 7.669 0 1 1-15.337-.001 7.669 7.669 0 0 1 15.337.001" opacity=".5" transform="translate(1 1)"/>
            <path fill="#B9E1D9" d="M53.35 282.627a3.363 3.363 0 1 1-6.726.001 3.363 3.363 0 0 1 6.725 0"/>
            <path fill="url(#c)" d="M65.737 261.354a3.084 3.084 0 1 1-6.168-.002 3.084 3.084 0 0 1 6.168.002" transform="translate(1 1)"/>
            <path fill="url(#c)" d="M44.57 241.674a6.749 6.749 0 0 1-6.75 6.75 6.748 6.748 0 0 1-6.75-6.75 6.749 6.749 0 1 1 13.5 0M468.867 295.884a8.524 8.524 0 1 1-17.046-.002 8.524 8.524 0 0 1 17.046.002" opacity=".5" transform="translate(1 1)"/>
            <path fill="#B9E1D9" d="M471.014 275.762a2.293 2.293 0 1 1-4.586 0 2.293 2.293 0 0 1 4.586 0"/>
            <path fill="url(#c)" d="M155.627 257.823v-6c108.448 0 196.678-83.9 196.678-187.026h6c0 106.435-90.92 193.026-202.678 193.026M94.786 70.036a9.552 9.552 0 1 1-19.104 0 9.552 9.552 0 1 1 19.104 0" transform="translate(1 1)"/>
            <path fill="url(#c)" d="M69.21 95.83c0 7.325-5.939 13.264-13.265 13.264-7.325 0-13.263-5.94-13.263-13.264 0-7.326 5.938-13.264 13.263-13.264 7.326 0 13.264 5.938 13.264 13.263" opacity=".5" transform="translate(1 1)"/>
            <path fill="url(#c)" d="M49.71 73.41a5.25 5.25 0 1 1-10.502 0 5.25 5.25 0 0 1 10.501 0" transform="translate(1 1)"/>
            <path fill="#93D3C9" d="M156.334 39.375a3.604 3.604 0 1 1-7.207 0 3.604 3.604 0 0 1 7.207 0"/>
            <path fill="url(#c)" d="M178.063 25.687a4 4 0 1 1-8 0 4 4 0 0 1 8 0" opacity=".5" transform="translate(1 1)"/>
            <path fill="#FEFEFE" d="M141.418 16.075a5.24 5.24 0 1 1-10.481-.002 5.24 5.24 0 0 1 10.481.002"/>
            <path fill="url(#c)" d="M96.46 111.538a7.592 7.592 0 1 1-15.184.001 7.592 7.592 0 0 1 15.183 0" opacity=".5" transform="translate(1 1)"/>
            <path fill="url(#c)" d="M435.007 207.2a7.257 7.257 0 1 1-14.514 0 7.257 7.257 0 0 1 14.514 0" transform="translate(1 1)"/>
            <path fill="url(#c)" d="M75.03 135.336a5.822 5.822 0 1 1-11.643-.001 5.822 5.822 0 0 1 11.644.001" opacity=".5" transform="translate(1 1)"/>
        </g>
    </g>
</svg>
