<svg xmlns="http://www.w3.org/2000/svg" xmlns:xlink="http://www.w3.org/1999/xlink" width="64" height="80" viewBox="0 0 64 80">
    <defs>
        <path id="a" d="M0 0h64v80H0z"/>
        <linearGradient id="c" x1="-7.295%" y1="0%" y2="107.044%">
            <stop offset="0%" stop-color="#8478BD"/>
            <stop offset="100%" stop-color="#526AC5"/>
        </linearGradient>
        <linearGradient id="d" x1="-34.021%" y1="0%" y2="65.757%">
            <stop offset="0%" stop-color="#6BD0F4"/>
            <stop offset="100%" stop-color="#83F1C0"/>
        </linearGradient>
    </defs>
    <g fill="none" fill-rule="evenodd">
        <mask id="b" fill="#fff">
            <use xlink:href="#a"/>
        </mask>
        <g mask="url(#b)">
            <path fill="url(#c)" d="M20.037 38.176c3.928.145 7.783.275 11.486-1.157 2.603-1.007 4.048-3.28 4.026-5.944-.025-2.7-1.494-4.895-4.046-5.95-3.711-1.536-7.558-1.245-11.466-1.063v14.114zm0 22.828c2.787 0 5.474.226 8.109-.067 2.306-.26 4.607-.936 6.816-1.732 2.465-.886 3.766-2.928 3.817-5.716.053-2.912-1.252-4.975-3.73-6.202-4.81-2.383-9.898-1.805-15.012-1.756v15.473zM25.635 0h6.852v16.336c.855.124 1.547.24 2.245.32 3.204.368 6.273 1.195 9.08 2.863 6.017 3.577 7.11 13.48 2.008 18.3-.697.66-1.527 1.173-2.472 1.888.735.252 1.283.423 1.819.631 3.278 1.265 6.056 3.2 7.08 6.796 1.357 4.77.906 9.457-1.565 13.794-2.457 4.308-6.634 5.84-11.094 6.724-2.313.456-4.675.65-7.101.972V80h-6.852V68.767h-5.22V80H13.56V68.359H0c.453-2.788.865-5.34 1.27-7.842.188-.086.285-.166.382-.168 1.25-.023 2.498-.038 3.748-.048 2.638-.024 3.367-.762 3.369-3.497.006-9.603.006-19.205 0-28.806-.002-2.962-1.267-4.269-4.142-4.304-1.505-.017-3.012-.002-4.563-.002v-7.396H13.56V0h6.854v15.945h5.22V0z" transform="translate(5)"/>
            <path fill="url(#d)" d="M20.037 33.176c3.928.145 7.783.275 11.486-1.157 2.603-1.007 4.048-3.28 4.026-5.944-.025-2.7-1.494-4.895-4.046-5.95-3.711-1.536-7.558-1.245-11.466-1.063v14.114zm0 22.828c2.787 0 5.474.226 8.109-.067 2.306-.26 4.607-.936 6.816-1.732 2.465-.886 3.766-2.928 3.817-5.716.053-2.912-1.252-4.975-3.73-6.202-4.81-2.383-9.898-1.805-15.012-1.756v15.473zM25.635 0h6.852v11.336c.855.124 1.547.24 2.245.32 3.204.368 6.273 1.195 9.08 2.863 6.017 3.577 7.11 13.48 2.008 18.3-.697.66-1.527 1.173-2.472 1.888.735.252 1.283.423 1.819.631 3.278 1.265 6.056 3.2 7.08 6.796 1.357 4.77.906 9.457-1.565 13.794-2.457 4.308-6.634 5.84-11.094 6.724-2.313.456-4.675.65-7.101.972V75h-6.852V63.767h-5.22V75H13.56V63.359H0c.453-2.788.865-5.34 1.27-7.842.188-.086.285-.166.382-.168 1.25-.023 2.498-.038 3.748-.048 2.638-.024 3.367-.762 3.369-3.497.006-9.603.006-19.205 0-28.806-.002-2.962-1.267-4.269-4.142-4.304-1.505-.017-3.012-.002-4.563-.002v-7.396H13.56V0h6.854v10.945h5.22V0z" transform="translate(5)"/>
        </g>
    </g>
</svg>
