<svg xmlns="http://www.w3.org/2000/svg" xmlns:xlink="http://www.w3.org/1999/xlink" width="160" height="120" viewBox="0 0 160 120">
    <defs>
        <path id="a" d="M0 0h160v120H0z"/>
        <linearGradient id="c" x1="-34.021%" y1="0%" y2="65.757%">
            <stop offset="0%" stop-color="#6BD0F4"/>
            <stop offset="100%" stop-color="#83F1C0"/>
        </linearGradient>
        <linearGradient id="d" x1="-7.295%" y1="0%" y2="107.044%">
            <stop offset="0%" stop-color="#8478BD"/>
            <stop offset="100%" stop-color="#526AC5"/>
        </linearGradient>
    </defs>
    <g fill="none" fill-rule="evenodd">
        <mask id="b" fill="#fff">
            <use xlink:href="#a"/>
        </mask>
        <g mask="url(#b)">
            <path fill="url(#c)" d="M7.031 32.787A3.516 3.516 0 1 1 0 32.786a3.516 3.516 0 0 1 7.032 0M26.262 47.612c0 6.062-4.914 10.977-10.977 10.977-6.062 0-10.976-4.915-10.976-10.977s4.914-10.977 10.976-10.977c6.063 0 10.977 4.915 10.977 10.977" transform="translate(8 23)"/>
            <path fill="url(#d)" d="M123.294 1.221l-39.78 2.045-.632.07c-3.084.531-7.65 2.275-11.204 5.72-3.552-3.445-8.119-5.189-11.203-5.72l-.314-.053-39.825-2.055-.273-.007c-5.373 0-9.744 4.371-9.744 9.743V69.51a9.743 9.743 0 0 0 9.744 9.744H59.57c5.554 0 6.641 3.59 6.79 5.656a1.73 1.73 0 0 0 1.73 1.73h7.174c.955 0 1.73-.774 1.73-1.73h.004c.04-.944.553-5.656 6.79-5.656h39.507c5.381 0 9.743-4.362 9.743-9.744V10.964c0-5.372-4.37-9.743-9.743-9.743" transform="translate(8 23)"/>
            <path fill="url(#c)" d="M59.17 1.258H18.355a5.572 5.572 0 0 0-5.566 5.564v60.482a5.572 5.572 0 0 0 5.566 5.564H59.17c10.914 0 11.49 9.744 11.51 10.16l2-.044V14.766c0-12.382-13.303-13.495-13.51-13.508" transform="translate(8 23)"/>
            <path fill="url(#c)" d="M125 1.258l-40.887.002c-.134.01-13.435 1.125-13.435 13.507v68.217l2 .044c.018-.416.594-10.16 11.51-10.16H125a5.572 5.572 0 0 0 5.565-5.564V6.822A5.572 5.572 0 0 0 125 1.258" transform="translate(8 23)"/>
            <path fill="url(#d)" d="M111.333 43.62l-4.166-3.46L103 43.62V2.132C103 .954 103.954 0 105.131 0h4.071c1.177 0 2.131.954 2.131 2.132V43.62zM138.105 60.054A6.053 6.053 0 1 1 132.052 54a6.053 6.053 0 0 1 6.053 6.054M143.605 19.303a2.304 2.304 0 1 1-4.607-.001 2.304 2.304 0 0 1 4.607.001M125.604 48.303a3.303 3.303 0 0 1-6.604 0 3.302 3.302 0 1 1 6.604 0M47.762 20.667h-19.5a2 2 0 0 1 0-4h19.5a2 2 0 0 1 0 4M54.512 31.535h-26.25a2 2 0 0 1 0-4h26.25a2 2 0 0 1 0 4M40.735 42.285H28.262a2 2 0 0 1 0-4h12.473a2 2 0 0 1 0 4M33.387 53.035h-5.125a2 2 0 0 1 0-4h5.125a2 2 0 0 1 0 4" transform="translate(8 23)"/>
        </g>
    </g>
</svg>
