<svg xmlns="http://www.w3.org/2000/svg" xmlns:xlink="http://www.w3.org/1999/xlink" width="160" height="120" viewBox="0 0 160 120">
    <defs>
        <path id="a" d="M0 0h160v120H0z"/>
        <linearGradient id="c" x1="-34.021%" y1="0%" y2="65.757%">
            <stop offset="0%" stop-color="#6BD0F4"/>
            <stop offset="100%" stop-color="#83F1C0"/>
        </linearGradient>
        <linearGradient id="d" x1="-7.295%" y1="0%" y2="107.044%">
            <stop offset="0%" stop-color="#8478BD"/>
            <stop offset="100%" stop-color="#526AC5"/>
        </linearGradient>
        <path id="e" d="M.346.153h42.195V42.35H.346z"/>
        <path id="f" d="M.789.906h6.094V7H.789z"/>
    </defs>
    <g fill="none" fill-rule="evenodd">
        <mask id="b" fill="#fff">
            <use xlink:href="#a"/>
        </mask>
        <g mask="url(#b)">
            <path fill="url(#c)" d="M74.636 92.053a5.159 5.159 0 1 1-10.317 0 5.159 5.159 0 0 1 10.317 0M30.081 72.205c0 7.18-5.82 13-13 13s-13-5.82-13-13 5.82-13 13-13 13 5.82 13 13M4.081 59.205a2.041 2.041 0 1 1-4.082 0 2.041 2.041 0 0 1 4.082 0" transform="translate(16 14)"/>
            <path fill="url(#d)" d="M96.43 51.448c0 24.706-20.027 44.734-44.733 44.734-24.706 0-44.735-20.028-44.735-44.734 0-24.706 20.029-44.734 44.735-44.734S96.43 26.742 96.43 51.448" transform="translate(16 14)"/>
            <path fill="url(#d)" d="M42.541 21.808c0 11.652-9.445 21.098-21.098 21.098C9.791 42.906.346 33.46.346 21.808.346 10.158 9.791.71 21.443.71c11.653 0 21.098 9.447 21.098 21.098" transform="translate(86 63.578)"/>
            <path fill="url(#c)" d="M89.711 46.816c9.104 2.34 15.83 10.602 15.83 20.435 0 11.651-9.445 21.099-21.098 21.099-5.7 0-10.873-2.262-14.67-5.936a44.526 44.526 0 0 1-24.766 7.476C20.301 89.89.272 69.862.272 45.156.272 20.45 20.302.422 45.007.422c24.706 0 44.734 20.028 44.734 44.734 0 .556-.01 1.11-.03 1.66z" transform="translate(23 14.578)"/>
            <path fill="url(#d)" d="M106.852 67.622c0 8.238-6.68 14.916-14.917 14.916-8.238 0-14.916-6.678-14.916-14.916s6.678-14.917 14.916-14.917 14.917 6.68 14.917 14.917" transform="translate(16 14)"/>
            <path fill="#FEFEFE" d="M108.2 88.205l-7.087-5.567 1.595-2.032 4.962 3.9 5.67-7.938 2.1 1.501z"/>
            <path fill="url(#d)" d="M54.602 49.657H30.596a6.647 6.647 0 0 1-6.647-6.647h24.006v-7.756a6.647 6.647 0 0 1 6.647-6.648v21.05zM21.799 15.455a6.053 6.053 0 1 1-12.106 0 6.053 6.053 0 0 1 12.106 0M21.688 4.41a2.304 2.304 0 1 1-4.608-.001 2.304 2.304 0 0 1 4.608.002" transform="translate(16 14)"/>
            <g transform="translate(91 109.578)">
                <mask id="g" fill="#fff">
                    <use xlink:href="#f"/>
                </mask>
                <path fill="url(#d)" d="M6.883 3.954a3.047 3.047 0 1 1-6.094 0 3.047 3.047 0 0 1 6.094 0" mask="url(#g)"/>
            </g>
            <path fill="url(#c)" d="M97.727 13.955a3.625 3.625 0 1 1-7.25 0 3.625 3.625 0 0 1 7.25 0" transform="translate(16 14)"/>
        </g>
    </g>
</svg>
