<svg xmlns="http://www.w3.org/2000/svg" xmlns:xlink="http://www.w3.org/1999/xlink" width="192" height="48" viewBox="0 0 192 48">
    <defs>
        <path id="a" d="M0 0h192v48H0z"/>
        <path id="c" d="M0 .028h42.973V42.91H0z"/>
        <linearGradient id="d" x1="92.783%" x2="7.788%" y1="89.707%" y2="8.442%">
            <stop offset="0%" stop-color="#3B3B3B"/>
            <stop offset="100%" stop-color="#9C83F1"/>
        </linearGradient>
        <path id="f" d="M.237.027h42.34v42.884H.237z"/>
        <linearGradient id="g" x1="-34.021%" y1="0%" y2="65.757%">
            <stop offset="0%" stop-color="#6BD0F4"/>
            <stop offset="100%" stop-color="#83F1C0"/>
        </linearGradient>
    </defs>
    <g fill="none" fill-rule="evenodd">
        <mask id="b" fill="#fff">
            <use xlink:href="#a"/>
        </mask>
        <g mask="url(#b)">
            <text font-family="OpenSans-Regular, Open Sans" font-size="18" letter-spacing=".7" transform="translate(0 3)">
                <tspan x="71" y="29" fill="#2E3854">ICAN MINING</tspan>
            </text>
            <g transform="translate(0 3)">
                <mask id="e" fill="#fff">
                    <use xlink:href="#c"/>
                </mask>
                <path fill="url(#d)" d="M0 21.47C0 9.626 9.62.027 21.486.027c11.867 0 21.487 9.6 21.487 21.441 0 11.843-9.62 21.442-21.487 21.442C9.62 42.911 0 33.311 0 21.47" mask="url(#e)"/>
            </g>
            <g transform="translate(13 3)">
                <mask id="h" fill="#fff">
                    <use xlink:href="#f"/>
                </mask>
                <path fill="url(#g)" d="M15.457 30.527a.927.927 0 0 1-1.017-.824.93.93 0 0 1 .814-1.03c.19-.022 4.702-.514 10.235.014 5.832.557 10.449 2.003 13.79 4.301a21.465 21.465 0 0 0 2.079-4.275c-5.156-2.574-20.285-2.497-25.96-2.23a.932.932 0 0 1-.963-.89.928.928 0 0 1 .878-.974c.847-.04 19.599-.88 26.596 2.297.375-1.45.602-2.96.668-4.514H15.356a.927.927 0 0 1-.921-.933c0-.515.412-.932.921-.932h27.22a21.613 21.613 0 0 0-.667-4.514C37.402 18.07 28.016 18.45 21.68 18.45c-3.5 0-6.067-.115-6.368-.13a.928.928 0 0 1-.878-.974.928.928 0 0 1 .963-.889c5.676.267 20.804.344 25.96-2.23a21.479 21.479 0 0 0-2.128-4.352c-3.335 2.267-7.926 3.695-13.715 4.249-1.916.183-3.71.244-5.243.244-2.897 0-4.867-.216-4.99-.23a.93.93 0 0 1-.815-1.03.926.926 0 0 1 1.017-.825c.16.019 14.533 1.542 22.68-3.934-3.875-5.06-9.933-8.32-16.746-8.32C9.722.027.237 9.628.237 21.468c0 11.84 9.485 21.442 21.181 21.442 6.847 0 12.932-3.293 16.805-8.396-8.136-5.55-22.605-4.006-22.766-3.988" mask="url(#h)"/>
            </g>
            <path fill="#FFF" d="M29 16a1 1 0 1 1-2 0 1 1 0 0 1 2 0M29 21a1 1 0 1 1-2 0 1 1 0 0 1 2 0M29 24a1 1 0 1 1-2 0 1 1 0 0 1 2 0M29 28a1 1 0 1 1-2 0 1 1 0 0 1 2 0M29 32a1 1 0 1 1-2 0 1 1 0 0 1 2 0"/>
        </g>
    </g>
</svg>
