<svg xmlns="http://www.w3.org/2000/svg" xmlns:xlink="http://www.w3.org/1999/xlink" width="128" height="128" viewBox="0 0 128 128">
    <defs>
        <path id="a" d="M0 0h128v128H0z"/>
        <linearGradient id="c" x1="-7.295%" y1="0%" y2="107.044%">
            <stop offset="0%" stop-color="#8478BD"/>
            <stop offset="100%" stop-color="#526AC5"/>
        </linearGradient>
        <linearGradient id="d" x1="-34.021%" y1="0%" y2="65.757%">
            <stop offset="0%" stop-color="#6BD0F4"/>
            <stop offset="100%" stop-color="#83F1C0"/>
        </linearGradient>
    </defs>
    <g fill="none" fill-rule="evenodd">
        <mask id="b" fill="#fff">
            <use xlink:href="#a"/>
        </mask>
        <g mask="url(#b)">
            <path fill="url(#c)" d="M98.725 104.258H20.517c-5.572 0-10.089-4.517-10.089-10.089V15.961c0-5.572 4.517-10.089 10.09-10.089h78.207c5.572 0 10.09 4.517 10.09 10.089v78.208c0 5.572-4.518 10.089-10.09 10.089" transform="translate(5 8)"/>
            <path fill="url(#d)" d="M78.939 66.51h16.317V50.193H78.939V66.51zm16.317 17.732c-.176.215-.371.41-.586.586H78.939V68.51h16.317v15.732zM60.621 48.193h16.318V31.875H60.621v16.318zm0 18.317h16.318V50.193H60.621V66.51zm0 18.318h16.318V68.51H60.621v16.318zM42.304 66.51h16.317V50.193H42.304V66.51zm0 18.318h16.317V68.51H42.304v16.318zM31.667 29.675v-3a5.864 5.864 0 0 0 5.857-5.857h3c0 4.883-3.974 8.857-8.857 8.857zm8.636 55.153H24.571a4.312 4.312 0 0 1-.585-.585V68.51h16.317v16.318zM31.667 11.96v3a5.865 5.865 0 0 0-5.858 5.858h-3c0-4.884 3.974-8.858 8.858-8.858zM98.725 0H20.517c-5.572 0-10.089 4.517-10.089 10.088v78.209c0 5.571 4.517 10.088 10.089 10.088h78.208c5.572 0 10.089-4.517 10.089-10.088V10.088C108.814 4.517 104.297 0 98.725 0z" transform="translate(5 8)"/>
            <path fill="url(#d)" d="M114.814 36.815a7.62 7.62 0 1 1-15.241-.001 7.62 7.62 0 0 1 15.241 0M117.934 25.055a3.12 3.12 0 1 1-6.24 0 3.12 3.12 0 1 1 6.24 0M8.836 74.068A4.419 4.419 0 1 1 0 74.066a4.419 4.419 0 0 1 8.837.002" transform="translate(5 8)"/>
            <path fill="url(#c)" d="M16.601 57.757a6.173 6.173 0 1 1-12.347 0 6.173 6.173 0 0 1 12.347 0M7.045 49.634a1.922 1.922 0 1 1-3.844.001 1.922 1.922 0 0 1 3.844-.001" transform="translate(5 8)"/>
        </g>
    </g>
</svg>
