<svg xmlns="http://www.w3.org/2000/svg" xmlns:xlink="http://www.w3.org/1999/xlink" width="712" height="568" viewBox="0 0 712 568">
    <defs>
        <path id="a" d="M0 0h712v568H0z"/>
        <linearGradient id="c" x1="-34.021%" y1="0%" y2="65.757%">
            <stop offset="0%" stop-color="#6BD0F4"/>
            <stop offset="100%" stop-color="#83F1C0"/>
        </linearGradient>
        <linearGradient id="d" x1="-7.295%" y1="0%" y2="107.044%">
            <stop offset="0%" stop-color="#8478BD"/>
            <stop offset="100%" stop-color="#526AC5"/>
        </linearGradient>
    </defs>
    <g fill="none" fill-rule="evenodd">
        <mask id="b" fill="#fff">
            <use xlink:href="#a"/>
        </mask>
        <g mask="url(#b)">
            <g transform="matrix(1 0 0 -1 -125 625)">
                <path fill="url(#c)" d="M3.023 44.909c3.853 6.007 11.846 7.753 17.853 3.9.098-.063.194-.127.29-.192L73.95 12.722a5.667 5.667 0 0 0 1.555-7.789 6.587 6.587 0 0 0-8.149-2.43L8.02 28.423C2.29 30.926-.325 37.6 2.178 43.328c.24.549.522 1.077.845 1.581z" transform="rotate(3 -1706.63 14364.388)"/>
                <path fill="url(#d)" d="M12.634 32.317c.977.047 1.734.237 2.633.473l-.505 2.113c-.898-.268-1.954-.458-2.884-.458-1.04 0-1.592.268-1.592 1.104 0 .772.472.962 2.017 1.356 2.633.677 3.436 1.545 3.436 3.498 0 2.018-.977 3.091-3.105 3.249V46H11.31v-2.333c-1.277-.031-2.097-.22-3.295-.63l.458-2.113c1.04.33 2.301.599 3.357.599 1.009 0 1.514-.284 1.514-1.056 0-.836-.49-1.04-2.097-1.434C8.851 38.496 8 37.519 8 35.659c0-2.128.993-3.2 3.31-3.342V30h1.324v2.317z" transform="matrix(1 0 0 -1 748 187)"/>
                <path fill="url(#c)" d="M465.214 289.925c16.763 28.85 53.74 38.648 82.59 21.885a60.414 60.414 0 0 0 3.352-2.098l80.68-54.235c18.127-12.186 24.352-35.958 14.525-55.464-9.845-19.54-32.638-28.77-53.304-21.584l-99.322 34.536c-27.746 9.648-42.418 39.961-32.77 67.707a53.189 53.189 0 0 0 4.25 9.253z"/>
                <path fill="url(#d)" d="M520.211 230.47a4.553 4.553 0 0 0 6.14 1.477l35.043-20.55a1.754 1.754 0 0 0 .583-2.47 2.147 2.147 0 0 0-2.68-.786L521.85 224.98a3.786 3.786 0 0 0-1.639 5.49z" transform="rotate(3 540.938 220.262)"/>
                <path fill="url(#c)" d="M615.81 279.336a3.648 3.648 0 0 0 4.92 1.183l28.076-16.464a1.405 1.405 0 0 0 .467-1.979 1.72 1.72 0 0 0-2.148-.63l-30.002 13.49a3.034 3.034 0 0 0-1.313 4.4z" transform="rotate(-9 632.417 271.158)"/>
                <path fill="url(#c)" d="M689.124 178.564a3.648 3.648 0 0 0 4.92 1.183l28.076-16.464a1.405 1.405 0 0 0 .466-1.979 1.72 1.72 0 0 0-2.147-.63l-30.002 13.49a3.034 3.034 0 0 0-1.313 4.4z" transform="rotate(4 705.73 170.386)"/>
                <path fill="url(#c)" d="M31.827 280l339.006-4.465c31.685-.418 59.915 19.94 69.522 50.137 9.646 30.315-1.325 63.394-27.175 81.937L0 704l31.827-424z"/>
                <path fill="url(#c)" d="M229.545 563.789c4.947 7.713 15.097 10.154 23.01 5.533l131.511-76.794a6.535 6.535 0 0 0 2.174-9.221 8.062 8.062 0 0 0-10.04-2.945l-140.544 62.926c-7.113 3.185-10.298 11.534-7.113 18.648.287.642.622 1.261 1.002 1.853z" transform="rotate(-13 307.307 525.657)"/>
                <path fill="url(#d)" d="M252.372 562.186c1.344.065 2.384.325 3.62.65l-.694 2.905c-1.235-.368-2.687-.629-3.966-.629-1.43 0-2.19.369-2.19 1.518 0 1.062.65 1.322 2.775 1.864 3.62.932 4.725 2.124 4.725 4.81 0 2.775-1.344 4.25-4.27 4.467V581h-1.82v-3.208c-1.757-.043-2.884-.303-4.53-.867l.628-2.905c1.43.455 3.164.824 4.617.824 1.387 0 2.08-.39 2.08-1.451 0-1.15-.672-1.431-2.882-1.973-3.295-.737-4.465-2.082-4.465-4.639 0-2.925 1.365-4.4 4.551-4.595V559h1.821v3.186z" transform="matrix(1 0 0 -1 0 1140)"/>
                <path fill="url(#d)" d="M90.265 68l412.761 5.609c30.875.42 56.848 23.253 61.22 53.82 4.538 31.724-11.679 62.806-40.296 77.232L69 434 90.265 68z" transform="rotate(2 317 251)"/>
                <circle cx="125" cy="396" r="45" fill="url(#d)"/>
                <circle cx="199" cy="404" r="12" fill="url(#d)"/>
                <path fill="url(#c)" d="M385.123 122.055a6.437 6.437 0 0 0 8.68 2.088l49.536-29.049a2.48 2.48 0 0 0 .824-3.491 3.036 3.036 0 0 0-3.789-1.112l-52.935 23.802a5.352 5.352 0 0 0-2.316 7.762z" transform="rotate(24 414.422 107.626)"/>
                <path fill="url(#d)" d="M734.225 157.691c-10.513 18.239-33.821 24.502-52.06 13.99a38.118 38.118 0 0 1-5.051-3.482l-72.056-58.747a20.318 20.318 0 0 1-5.382-24.737c4.11-8.332 13.713-12.382 22.548-9.512l91.76 29.815c19.075 6.198 29.514 26.685 23.316 45.76a36.315 36.315 0 0 1-3.075 6.913z" transform="scale(-1 1) rotate(-18 0 4345.218)"/>
                <circle cx="687" cy="95" r="9" fill="url(#d)"/>
                <circle cx="704" cy="96" r="3" fill="url(#d)"/>
                <circle cx="735" cy="128" r="6" fill="url(#d)"/>
                <circle cx="772" cy="113" r="5" fill="url(#d)"/>
                <path fill="url(#c)" d="M631.047 114.523c2.75.134 4.881.666 7.41 1.333l-1.42 5.947c-2.529-.755-5.502-1.288-8.12-1.288-2.93 0-4.482.754-4.482 3.106 0 2.175 1.33 2.708 5.68 3.818 7.41 1.907 9.673 4.349 9.673 9.85 0 5.68-2.75 8.7-8.741 9.144v6.611h-3.728v-6.568c-3.596-.089-5.903-.62-9.276-1.776l1.288-5.947c2.929.932 6.479 1.687 9.452 1.687 2.84 0 4.26-.8 4.26-2.972 0-2.353-1.376-2.93-5.902-4.038-6.745-1.51-9.141-4.262-9.141-9.498 0-5.99 2.795-9.008 9.319-9.409V108h3.728v6.523z" transform="matrix(1 0 0 -1 0 261.044)"/>
                <path fill="url(#c)" d="M405.374 285.263c-7.07 8.5-19.692 9.662-28.193 2.592a20.02 20.02 0 0 1-.8-.7L246.76 167.172a8.765 8.765 0 0 1-.317-12.555 10.408 10.408 0 0 1 13.569-1.146L401.8 256.611c8.837 6.428 10.79 18.803 4.361 27.64-.251.345-.514.683-.787 1.012z" transform="scale(-1 1) rotate(-23 0 1828.985)"/>
                <circle cx="291" cy="190" r="15" fill="url(#c)"/>
                <circle cx="325" cy="182" r="6" fill="url(#c)"/>
                <circle cx="461" cy="172" r="4" fill="url(#c)"/>
                <path fill="url(#d)" d="M248.53 234.765c1.589.077 2.818.385 4.278.77l-.82 3.432c-1.46-.436-3.175-.743-4.687-.743-1.69 0-2.587.435-2.587 1.793 0 1.255.768 1.563 3.278 2.204 4.278 1.1 5.584 2.51 5.584 5.685 0 3.279-1.588 5.022-5.045 5.278V257h-2.152v-3.791c-2.076-.051-3.407-.358-5.354-1.025l.743-3.433c1.69.538 3.74.974 5.456.974 1.64 0 2.46-.461 2.46-1.715 0-1.359-.795-1.692-3.408-2.332-3.893-.871-5.276-2.46-5.276-5.482 0-3.458 1.614-5.2 5.379-5.43V231h2.152v3.765z" transform="matrix(1 0 0 -1 0 488)"/>
                <path fill="url(#d)" d="M213.926 574.906c-5.256 6.32-14.639 7.183-20.958 1.927-.203-.168-.4-.342-.594-.52l-96.357-89.19a6.515 6.515 0 0 1-.236-9.334 7.737 7.737 0 0 1 10.087-.852l105.4 76.67c6.57 4.779 8.021 13.978 3.243 20.547-.187.257-.382.508-.585.752z" transform="scale(-1 1) rotate(-7 0 3072.336)"/>
                <path fill="url(#c)" d="M235.282 160.732c-28.547 33.463-77.988 39.434-113.682 13.73l-68.265-49.158c-17.067-12.29-23.002-34.97-14.143-54.045 8.815-18.981 30.035-28.837 50.225-23.328l121.29 33.095c26.317 7.181 41.829 34.336 34.648 60.652a49.392 49.392 0 0 1-10.073 19.054z" transform="rotate(147 141.11 118.404)"/>
                <path fill="url(#d)" d="M404.417 320.314c4.858 11.1 17.795 16.159 28.895 11.3.686-.3 1.356-.635 2.007-1.004l74.154-41.965c4.741-2.683 6.41-8.702 3.726-13.444a9.865 9.865 0 0 0-.296-.49 14.107 14.107 0 0 0-15.724-5.916l-79.135 22.581c-11.279 3.219-17.813 14.97-14.595 26.25.262.916.585 1.815.968 2.688z" transform="rotate(-5 458.555 300.856)"/>
                <circle cx="525" cy="257" r="5" fill="url(#d)"/>
                <circle cx="555" cy="298" r="3" fill="url(#d)"/>
                <circle cx="503" cy="251" r="8" fill="url(#d)"/>
                <path fill="url(#d)" d="M453.448 328.18a3.29 3.29 0 0 0 4.635 1.545l11.12-6.294a1.48 1.48 0 0 0 .515-2.09 2.116 2.116 0 0 0-2.358-.887l-11.868 3.387a3.185 3.185 0 0 0-2.044 4.34z" transform="rotate(-14 461.568 325.263)"/>
                <path fill="url(#c)" d="M425.69 304.345c1.831.088 3.25.443 4.935.887l-.946 3.96c-1.684-.502-3.664-.857-5.409-.857-1.95 0-2.985.502-2.985 2.069 0 1.448.887 1.803 3.783 2.543 4.936 1.27 6.443 2.896 6.443 6.56 0 3.783-1.832 5.794-5.822 6.09V330h-2.483v-4.374c-2.395-.06-3.93-.414-6.177-1.183l.858-3.961c1.95.62 4.315 1.124 6.295 1.124 1.891 0 2.837-.533 2.837-1.98 0-1.567-.916-1.95-3.93-2.69-4.493-1.005-6.089-2.838-6.089-6.325 0-3.99 1.862-6 6.206-6.266V300h2.483v4.345z" transform="matrix(1 0 0 -1 0 630)"/>
            </g>
        </g>
    </g>
</svg>
