<svg xmlns="http://www.w3.org/2000/svg" xmlns:xlink="http://www.w3.org/1999/xlink" width="160" height="120" viewBox="0 0 160 120">
    <defs>
        <path id="a" d="M0 0h160v120H0z"/>
        <path id="c" d="M0 .11h26.003v26.003H0z"/>
        <linearGradient id="d" x1="-34.021%" y1="0%" y2="65.757%">
            <stop offset="0%" stop-color="#6BD0F4"/>
            <stop offset="100%" stop-color="#83F1C0"/>
        </linearGradient>
        <path id="f" d="M.926.08h92.921V93H.927z"/>
        <linearGradient id="g" x1="-7.295%" y1="0%" y2="107.044%">
            <stop offset="0%" stop-color="#8478BD"/>
            <stop offset="100%" stop-color="#526AC5"/>
        </linearGradient>
        <path id="i" d="M.125.178h12.107v12.107H.125z"/>
    </defs>
    <g fill="none" fill-rule="evenodd">
        <mask id="b" fill="#fff">
            <use xlink:href="#a"/>
        </mask>
        <g mask="url(#b)">
            <g transform="translate(24 59.432)">
                <mask id="e" fill="#fff">
                    <use xlink:href="#c"/>
                </mask>
                <path fill="url(#d)" d="M5.808 23.94C-.172 19.967-1.8 11.899 2.172 5.919c3.973-5.981 12.041-7.61 18.023-3.636 5.98 3.972 7.607 12.04 3.635 18.02-3.972 5.982-12.042 7.61-18.022 3.637" mask="url(#e)"/>
            </g>
            <g transform="translate(34 16.432)">
                <mask id="h" fill="#fff">
                    <use xlink:href="#f"/>
                </mask>
                <path fill="url(#g)" d="M93.921 46.46c0 25.66-20.801 46.461-46.461 46.461C21.801 92.921 1 72.12 1 46.46 1 20.801 21.801 0 47.46 0c25.66 0 46.461 20.801 46.461 46.46" mask="url(#h)"/>
            </g>
            <path fill="url(#d)" d="M103.847 50.881c0 25.66-20.8 46.461-46.46 46.461s-46.46-20.8-46.46-46.46 20.8-46.46 46.46-46.46 46.46 20.8 46.46 46.46" transform="translate(24 6)"/>
            <path fill="url(#d)" d="M7.79 44.337a5.16 5.16 0 0 1-1.442-7.153 5.159 5.159 0 1 1 8.595 5.71 5.16 5.16 0 0 1-7.153 1.444" transform="translate(24 6)"/>
            <path fill="#93D3C9" d="M98.19 9.74a2.04 2.04 0 1 1 2.257-3.4 2.04 2.04 0 0 1-2.257 3.4"/>
            <g transform="translate(122 37.432)">
                <mask id="j" fill="#fff">
                    <use xlink:href="#i"/>
                </mask>
                <path fill="url(#g)" d="M2.83 11.274a6.052 6.052 0 0 1-1.693-8.391 6.054 6.054 0 0 1 10.085 6.699 6.054 6.054 0 0 1-8.392 1.692" mask="url(#j)"/>
            </g>
            <path fill="url(#g)" d="M101.841 27.855a2.304 2.304 0 1 1 2.55-3.838 2.304 2.304 0 0 1-2.55 3.838M1.801 26.028a3.048 3.048 0 1 1 3.371-5.074 3.048 3.048 0 0 1-3.37 5.074" transform="translate(24 6)"/>
            <path fill="url(#d)" d="M77.568 101.116a3.624 3.624 0 1 1 4.012-6.04 3.625 3.625 0 0 1-4.012 6.04" transform="translate(24 6)"/>
            <path fill="url(#g)" d="M59.992 30.13c3.33.161 5.907.807 8.969 1.611l-1.72 7.198c-3.06-.913-6.658-1.559-9.827-1.559-3.545 0-5.425.913-5.425 3.761 0 2.633 1.61 3.276 6.875 4.62 8.97 2.307 11.709 5.264 11.709 11.922 0 6.875-3.331 10.53-10.581 11.066v8.002h-4.513v-7.949c-4.35-.109-7.142-.752-11.224-2.149l1.556-7.198c3.546 1.128 7.843 2.04 11.442 2.04 3.437 0 5.156-.966 5.156-3.595 0-2.848-1.665-3.546-7.144-4.888C47.1 51.184 44.2 47.855 44.2 41.517c0-7.25 3.384-10.904 11.278-11.387v-7.896h4.513v7.896z" transform="translate(24 6)"/>
        </g>
    </g>
</svg>
