<svg xmlns="http://www.w3.org/2000/svg" xmlns:xlink="http://www.w3.org/1999/xlink" width="128" height="128" viewBox="0 0 128 128">
    <defs>
        <path id="a" d="M0 0h128v128H0z"/>
        <linearGradient id="c" x1="-34.021%" y1="0%" y2="65.757%">
            <stop offset="0%" stop-color="#6BD0F4"/>
            <stop offset="100%" stop-color="#83F1C0"/>
        </linearGradient>
        <linearGradient id="d" x1="-7.295%" y1="0%" y2="107.044%">
            <stop offset="0%" stop-color="#8478BD"/>
            <stop offset="100%" stop-color="#526AC5"/>
        </linearGradient>
    </defs>
    <g fill="none" fill-rule="evenodd">
        <mask id="b" fill="#fff">
            <use xlink:href="#a"/>
        </mask>
        <g mask="url(#b)">
            <path fill="url(#c)" d="M78.582 0v8.811h-8.964V0h-6.864v8.811h-9.72V0h-6.863v8.811H31.593L10.054 30.348v14.077H0v6.863h10.054v8.962H0v6.863h10.054v9.717H0v6.863h10.054V99.19h16.479V108h6.864v-8.81h9.719V108h6.865v-8.81h8.964V108h6.863v-8.81h13.02l21.62-21.617V63.439H110v-6.862h-9.553V46.86H110v-6.864h-9.553v-8.961H110v-6.863h-9.553V8.812h-15V0z" transform="translate(9 11)"/>
            <path fill="url(#d)" d="M82.201 68.63l-12.57 12.571H27.798V39.315l12.516-12.516h41.886V68.63zM33.945 15L16 32.945V93h59.976L94 74.976V15H33.945z" transform="translate(9 11)"/>
            <path fill="url(#d)" d="M52.285 51.972c1.82.064 3.607.12 5.323-.51 1.205-.443 1.875-1.444 1.865-2.617-.012-1.19-.692-2.155-1.875-2.62-1.72-.676-3.502-.548-5.313-.468v6.215zm-.01 10.021c1.277 0 2.508.1 3.715-.03 1.056-.114 2.11-.413 3.122-.765 1.13-.392 1.725-1.295 1.748-2.529.025-1.287-.573-2.2-1.708-2.743-2.204-1.054-4.534-.798-6.877-.776v6.843zM54.608 37h3.103v5.14c.387.055.7.108 1.017.144 1.45.167 2.84.542 4.111 1.298 2.725 1.622 3.22 6.111.91 8.296-.316.299-.692.532-1.12.856.333.114.581.192.824.286 1.484.573 2.742 1.45 3.206 3.08.615 2.163.41 4.288-.709 6.254-1.112 1.953-3.004 2.648-5.023 3.048-1.048.207-2.117.295-3.216.44V71h-3.103v-5.092h-2.364V71h-3.103v-5.277H43l.575-3.555c.085-.04.13-.076.173-.076.566-.011 1.131-.018 1.697-.022 1.195-.01 1.525-.346 1.526-1.586.003-4.353.003-8.706 0-13.058-.001-1.343-.574-1.935-1.876-1.952-.681-.007-1.364 0-2.066 0V42.12h6.112V37h3.103v4.962h2.364V37z" transform="translate(9 11)"/>
        </g>
    </g>
</svg>
