<svg xmlns="http://www.w3.org/2000/svg" xmlns:xlink="http://www.w3.org/1999/xlink" width="672" height="624" viewBox="0 0 672 624">
    <defs>
        <path id="a" d="M0 0h672v624H0z"/>
        <linearGradient id="c" x1="-34.021%" y1="0%" y2="65.757%">
            <stop offset="0%" stop-color="#6BD0F4"/>
            <stop offset="100%" stop-color="#83F1C0"/>
        </linearGradient>
        <linearGradient id="d" x1="-7.295%" y1="0%" y2="107.044%">
            <stop offset="0%" stop-color="#8478BD"/>
            <stop offset="100%" stop-color="#526AC5"/>
        </linearGradient>
    </defs>
    <g fill="none" fill-rule="evenodd">
        <mask id="b" fill="#fff">
            <use xlink:href="#a"/>
        </mask>
        <g mask="url(#b)">
            <g transform="translate(15 11)">
                <path fill="url(#c)" d="M272.128 204l378.947 244.602c30.038 19.389 44.741 55.496 36.791 90.354-7.804 34.218-37.68 58.885-72.757 60.07L231 612l41.128-408z" transform="matrix(-1 0 0 1 921 0)"/>
                <path fill="url(#d)" d="M474.919 590.375c4.386 6.867 13.417 9.039 20.446 4.917l116.682-68.423a5.84 5.84 0 0 0 1.939-8.225 7.15 7.15 0 0 0-8.924-2.619L480.373 572.09c-6.35 2.855-9.183 10.318-6.328 16.668.251.56.543 1.1.874 1.617z" transform="scale(-1 1) rotate(32 0 -1340.534)"/>
                <path fill="url(#d)" d="M.214 563.807a4.785 4.785 0 0 0 6.453 1.552l36.822-21.593a1.843 1.843 0 0 0 .612-2.596 2.257 2.257 0 0 0-2.816-.826l-39.35 17.692a3.979 3.979 0 0 0-1.72 5.77z" transform="scale(-1 1) rotate(65 0 518.557)"/>
                <path fill="url(#c)" d="M207.596 564.56c-8.646 23.167-34.435 34.937-57.601 26.29a44.772 44.772 0 0 1-6.97-3.31l-53.74-31.47c-11.289-6.611-16.646-20.043-13.005-32.607 3.598-12.416 15.474-20.554 28.351-19.427l68.538 5.996c22.291 1.95 38.78 21.602 36.83 43.893a40.516 40.516 0 0 1-2.403 10.636z" transform="scale(1 -1) rotate(-5 -12427.174 0)"/>
                <path fill="url(#d)" d="M176.219 529.61c3.209.155 5.694.777 8.644 1.554l-1.656 6.937c-2.95-.88-6.418-1.502-9.473-1.502-3.416 0-5.228.879-5.228 3.623 0 2.537 1.553 3.159 6.625 4.454 8.646 2.225 11.285 5.072 11.285 11.49 0 6.626-3.21 10.148-10.197 10.666v7.712h-4.349v-7.661c-4.194-.104-6.885-.724-10.82-2.072l1.503-6.938c3.416 1.088 7.557 1.969 11.025 1.969 3.313 0 4.97-.933 4.97-3.467 0-2.746-1.605-3.418-6.885-4.711-7.868-1.762-10.663-4.972-10.663-11.08 0-6.987 3.26-10.507 10.87-10.974V522h4.349v7.61z"/>
                <path fill="url(#d)" d="M337 343.119l266.145 66.14c25.478 6.333 52.068-4.978 65.177-27.722 13.046-22.634 9.179-51.219-9.41-69.573L351.04 8 337 343.119z" transform="matrix(-1 0 0 1 1013 0)"/>
                <path fill="url(#d)" d="M308.98 492.396c-14.283 22.109-43.784 28.453-65.892 14.17a47.658 47.658 0 0 1-3.89-2.8l-86.417-69.053c-11.07-8.846-13.91-24.506-6.649-36.675 7.3-12.235 22.408-17.353 35.641-12.074l106.85 42.626c22.245 8.873 33.083 34.1 24.21 56.343a43.363 43.363 0 0 1-3.853 7.463z" transform="matrix(1 0 0 -1 0 898.095)"/>
                <circle cx="91" cy="511" r="5" fill="url(#d)"/>
                <circle cx="121" cy="513" r="13" fill="url(#d)"/>
                <circle cx="179" cy="421" r="4" fill="url(#d)"/>
                <circle cx="277" cy="361" r="6" fill="url(#c)"/>
                <circle cx="395" cy="522" r="14" fill="url(#d)"/>
                <circle cx="372" cy="533" r="5" fill="url(#d)"/>
                <circle cx="314" cy="448" r="8" fill="url(#d)"/>
                <path fill="url(#c)" d="M277.12 407.044c3.393.164 6.02.821 9.138 1.643l-1.75 7.333c-3.12-.93-6.785-1.588-10.015-1.588-3.61 0-5.526.93-5.526 3.83 0 2.682 1.641 3.34 7.004 4.708 9.139 2.352 11.929 5.363 11.929 12.146 0 7.005-3.393 10.728-10.78 11.276v8.152h-4.596v-8.099c-4.435-.11-7.28-.765-11.438-2.19l1.588-7.334c3.611 1.15 7.99 2.081 11.655 2.081 3.502 0 5.254-.985 5.254-3.664 0-2.903-1.697-3.613-7.278-4.98-8.318-1.862-11.272-5.256-11.272-11.712 0-7.387 3.447-11.108 11.49-11.602V399h4.598v8.044z"/>
                <path fill="url(#c)" d="M249.937 356.598a3.993 3.993 0 0 1-5.788.377l-25.872-23.99a1.754 1.754 0 0 1-.064-2.51 2.076 2.076 0 0 1 2.709-.229l28.3 20.622a3.96 3.96 0 0 1 .715 5.73z" transform="scale(1 -1) rotate(3 13368.983 0)"/>
                <path fill="url(#c)" d="M596.3 357.497a4.815 4.815 0 0 1-6.979.455l-31.199-28.929a2.115 2.115 0 0 1-.076-3.028 2.503 2.503 0 0 1 3.266-.275l34.127 24.867a4.776 4.776 0 0 1 .862 6.91z" transform="scale(1 -1) rotate(-18 -1583.383 0)"/>
                <path fill="url(#c)" d="M595.185 148.153c-7.146 8.608-19.916 9.793-28.523 2.648-.285-.237-.563-.48-.835-.733L434.591 28.381a8.898 8.898 0 0 1-.322-12.735 10.53 10.53 0 0 1 13.741-1.16l143.548 104.602c8.967 6.533 10.939 19.098 4.405 28.065-.249.341-.508.675-.778 1z" transform="scale(1 -1) rotate(9 1582.707 0)"/>
                <path fill="url(#d)" d="M572.372 15.186c1.344.065 2.384.325 3.62.65l-.694 2.905c-1.235-.368-2.687-.629-3.966-.629-1.43 0-2.19.369-2.19 1.518 0 1.062.65 1.322 2.775 1.864 3.62.932 4.725 2.124 4.725 4.81 0 2.775-1.344 4.25-4.27 4.467V34h-1.82v-3.208c-1.757-.043-2.884-.303-4.53-.867l.628-2.905c1.43.455 3.164.824 4.617.824 1.387 0 2.08-.39 2.08-1.451 0-1.15-.672-1.431-2.882-1.973-3.295-.737-4.465-2.082-4.465-4.639 0-2.925 1.365-4.4 4.551-4.595V12h1.821v3.186z"/>
                <path fill="url(#d)" d="M316.475 458.27l96.128 4.564c16.72.793 29.63 14.99 28.835 31.71a30.307 30.307 0 0 1-.519 4.328c-3.263 16.84-19.56 27.847-36.401 24.584a31.06 31.06 0 0 1-3.598-.924l-91.446-29.4c-8.516-2.738-13.61-11.443-11.828-20.209 1.803-8.86 9.797-15.082 18.829-14.653z" transform="scale(1 -1) rotate(6 9740.866 0)"/>
                <path fill="url(#c)" d="M416.427 471.214c2.199.106 3.901.532 5.923 1.064l-1.135 4.753c-2.021-.603-4.397-1.029-6.49-1.029-2.341 0-3.582.603-3.582 2.483 0 1.738 1.063 2.164 4.539 3.051 5.923 1.524 7.731 3.476 7.731 7.872 0 4.54-2.198 6.953-6.986 7.308V502h-2.98v-5.25c-2.873-.07-4.717-.495-7.412-1.419l1.029-4.753c2.34.745 5.178 1.349 7.554 1.349 2.27 0 3.405-.639 3.405-2.375 0-1.881-1.1-2.342-4.717-3.228-5.391-1.207-7.306-3.407-7.306-7.59 0-4.788 2.234-7.2 7.448-7.52V466h2.98v5.214z"/>
            </g>
        </g>
    </g>
</svg>
