<svg xmlns="http://www.w3.org/2000/svg" xmlns:xlink="http://www.w3.org/1999/xlink" width="128" height="128" viewBox="0 0 128 128">
    <defs>
        <path id="a" d="M0 0h128v128H0z"/>
        <linearGradient id="c" x1="-7.295%" y1="0%" y2="107.044%">
            <stop offset="0%" stop-color="#8478BD"/>
            <stop offset="100%" stop-color="#526AC5"/>
        </linearGradient>
        <linearGradient id="d" x1="-34.021%" y1="0%" y2="65.757%">
            <stop offset="0%" stop-color="#6BD0F4"/>
            <stop offset="100%" stop-color="#83F1C0"/>
        </linearGradient>
    </defs>
    <g fill="none" fill-rule="evenodd">
        <mask id="b" fill="#fff">
            <use xlink:href="#a"/>
        </mask>
        <g mask="url(#b)">
            <path fill="url(#c)" d="M7.576 85.007l-3.672-1.344v5.016l9.707 9.706 63.235-63.83-9.707-9.708z" transform="translate(15 14)"/>
            <path fill="url(#c)" d="M56.529 8.312l-3.259-1.14v4.399l31.184 31.186 14.344-14.343v-4.401l-2.762 1.639-12.83-12.831L60.441 4.4z" transform="translate(15 14)"/>
            <path fill="url(#d)" d="M60.441 0l-7.17 7.172 31.183 31.185 14.344-14.343L83.206 8.422z" transform="translate(15 14)"/>
            <path fill="url(#c)" d="M3.904 83.664l9.707 9.707 62.846-62.846-9.707-9.707z" transform="translate(15 14)"/>
            <path fill="url(#c)" d="M90.736 71.678l-.945.844a17.623 17.623 0 0 0-4.242-6.835c-5-4.998-12.23-6.375-18.48-4.172L34.486 28.93c2.203-6.25.826-13.48-4.172-18.479a17.637 17.637 0 0 0-11.511-5.15l1.334-1.353L11.835.334V6.28l8.124 8.124a7.164 7.164 0 0 1 0 10.13l-.688.69a7.165 7.165 0 0 1-10.131 0l-7.275-7.277c-.146-.477-.246-.822-.246-.87 0-.186-1.62-.31-1.62-.31v6.564l.008-.004c.072 4.442 1.79 8.86 5.18 12.25 4.999 4.997 12.23 6.374 18.48 4.171l32.585 32.586c-2.204 6.25-.827 13.48 4.172 18.478 4.999 5 12.228 6.376 18.478 4.172v-5.946h-5.945l-2.18-2.178a7.165 7.165 0 0 1 0-10.13l.688-.69a7.165 7.165 0 0 1 10.13 0l8.125 8.125a17.848 17.848 0 0 0 1.014-5.966l.002.002v-6.523z" transform="translate(15 17.74)"/>
            <path fill="url(#d)" d="M85.548 60.742C80.55 55.744 73.32 54.367 67.07 56.57L34.485 23.985c2.203-6.25.826-13.48-4.172-18.478-4.999-5-12.23-6.376-18.479-4.172l8.124 8.125a7.162 7.162 0 0 1 0 10.13l-.687.688a7.165 7.165 0 0 1-10.13 0l-8.125-8.125c-2.204 6.25-.827 13.48 4.172 18.479 4.998 4.998 12.228 6.375 18.478 4.172l32.585 32.585c-2.203 6.249-.826 13.48 4.172 18.478 5 4.999 12.23 6.376 18.48 4.172l-8.126-8.124a7.165 7.165 0 0 1 0-10.131l.688-.688a7.165 7.165 0 0 1 10.131 0l8.124 8.125c2.204-6.25.827-13.48-4.172-18.48" transform="translate(15 16.74)"/>
            <path fill="url(#c)" d="M20.897 54.16a5.509 5.509 0 1 1-11.018 0 5.509 5.509 0 0 1 11.018 0M6.62 43.943a2.717 2.717 0 1 1-5.433 0 2.717 2.717 0 0 1 5.434 0" transform="translate(15 16.74)"/>
            <path fill="url(#d)" d="M86.956 57.058a6.79 6.79 0 1 1-13.58 0 6.79 6.79 0 0 1 13.58 0M98.466 50.268a3.252 3.252 0 1 1-6.505.001 3.252 3.252 0 0 1 6.505-.001M42.306 69.502a3.164 3.164 0 1 1-6.328 0 3.164 3.164 0 0 1 6.328 0" transform="translate(15 16.74)"/>
        </g>
    </g>
</svg>
